<?xml version="1.0" encoding="UTF-8" standalone="no"?>
<svg
   xmlns:dc="http://purl.org/dc/elements/1.1/"
   xmlns:cc="http://creativecommons.org/ns#"
   xmlns:rdf="http://www.w3.org/1999/02/22-rdf-syntax-ns#"
   xmlns:svg="http://www.w3.org/2000/svg"
   xmlns="http://www.w3.org/2000/svg"
   viewBox="0 0 414.5036 77.382668"
   height="77.382668"
   width="414.5036"
   xml:space="preserve"
   id="svg4485"
   version="1.1"><metadata
     id="metadata4491"><rdf:RDF><cc:Work
         rdf:about=""><dc:format>image/svg+xml</dc:format><dc:type
           rdf:resource="http://purl.org/dc/dcmitype/StillImage" /><dc:title></dc:title></cc:Work></rdf:RDF></metadata><defs
     id="defs4489"><clipPath
       id="clipPath4501"
       clipPathUnits="userSpaceOnUse"><path
         id="path4499"
         d="M 0,253.667 H 594 V 0 H 0 Z" /></clipPath></defs><g
     transform="matrix(1.3333333,0,0,-1.3333333,-178.4072,207.42426)"
     id="g4493"><g
       id="g4495"><g
         clip-path="url(#clipPath4501)"
         id="g4497"><g
           transform="translate(155.6504,104.3066)"
           id="g4503"><path
             id="path4505"
             style="fill:#2d58aa;fill-opacity:1;fill-rule:nonzero;stroke:none"
             d="m 0,0 c 6.855,0 12.037,4.146 12.037,10.842 0,6.38 -5.661,10.922 -12.436,10.922 H -15.307 V 0 Z m -2.152,26.944 c 6.456,0 10.839,4.066 10.839,8.851 0,5.261 -4.383,8.69 -10.839,8.69 H -15.307 V 26.944 Z m 1.274,23.199 c 9.565,0 16.105,-5.658 16.105,-13.712 0,-5.658 -4.786,-10.522 -9.248,-11.398 v -0.08 c 5.42,-0.719 12.833,-6.22 12.833,-14.187 0,-9.647 -6.697,-16.423 -18.415,-16.423 h -22.242 v 55.8 z" /></g><path
           id="path4507"
           style="fill:#2d58aa;fill-opacity:1;fill-rule:nonzero;stroke:none"
           d="m 194.945,154.449 h 6.538 v -55.8 h -6.538 z" /><g
           transform="translate(250.4258,103.9072)"
           id="g4509"><path
             id="path4511"
             style="fill:#2d58aa;fill-opacity:1;fill-rule:nonzero;stroke:none"
             d="m 0,0 c 12.596,0 22.242,9.247 22.242,22.643 0,13.551 -9.646,22.638 -22.242,22.638 -12.677,0 -22.241,-9.087 -22.241,-22.638 C -22.241,9.247 -12.677,0 0,0 m 0,51.661 c 16.024,0 29.02,-12.197 29.02,-29.018 C 29.02,5.82 16.024,-6.376 0,-6.376 c -16.021,0 -28.937,12.196 -28.937,29.019 0,16.821 12.916,29.018 28.937,29.018" /></g><g
           transform="translate(344.8877,154.4492)"
           id="g4513"><path
             id="path4515"
             style="fill:#2d58aa;fill-opacity:1;fill-rule:nonzero;stroke:none"
             d="m 0,0 v -55.8 h -6.14 l -24.797,33.401 c -4.778,6.616 -8.284,11.717 -8.364,11.717 h -0.083 c -0.077,0 0.163,-6.935 0.163,-15.863 V -55.8 h -6.54 V 0 h 6.141 l 24.793,-33.32 c 4.222,-5.661 8.291,-11.478 8.371,-11.478 h 0.08 c 0.079,0 -0.16,7.492 -0.16,15.463 V 0 Z" /></g><path
           id="path4517"
           style="fill:#2d58aa;fill-opacity:1;fill-rule:nonzero;stroke:none"
           d="m 369.271,154.449 h 6.54 v -55.8 h -6.54 z" /><g
           transform="translate(436.9541,98.6494)"
           id="g4519"><path
             id="path4521"
             style="fill:#2d58aa;fill-opacity:1;fill-rule:nonzero;stroke:none"
             d="m 0,0 -21.131,28.616 -9.083,-9.087 V 0 h -6.54 v 55.8 h 6.54 V 40.893 c 0,-8.931 -0.16,-13.472 -0.08,-13.472 h 0.08 c 0.08,0 5.022,5.181 9.326,9.489 L -1.994,55.8 H 6.054 L -16.742,33.005 7.729,0 Z" /></g></g></g></g></svg>