<?xml version="1.0" encoding="utf-8"?>
<!-- Generator: Adobe Illustrator 16.0.0, SVG Export Plug-In . SVG Version: 6.00 Build 0)  -->
<!DOCTYPE svg PUBLIC "-//W3C//DTD SVG 1.1//EN" "http://www.w3.org/Graphics/SVG/1.1/DTD/svg11.dtd">
<svg version="1.1" id="Layer_1" xmlns="http://www.w3.org/2000/svg" xmlns:xlink="http://www.w3.org/1999/xlink" x="0px" y="0px"
	 width="68.125px" height="103.458px" viewBox="215.958 198.208 68.125 103.458"
	 enable-background="new 215.958 198.208 68.125 103.458" xml:space="preserve">
<polygon fill="#FFFFFF" points="215.958,296.084 216.833,296.084 216.833,300.834 218.25,300.834 218.25,301.584 215.958,301.584
	"/>
<path fill="#FFFFFF" d="M222.292,299.875h0.833l-0.417-2.791L222.292,299.875z M224.25,301.584h-0.875l-0.167-1h-1.083l-0.167,1
	h-0.792l0.875-5.5h1.25L224.25,301.584z"/>
<path fill="#FFFFFF" d="M228.375,299.125v1.709h0.5c0.292,0,0.458-0.125,0.458-0.543v-0.5c0-0.5-0.167-0.666-0.542-0.666H228.375z
	 M228.375,296.875v1.459h0.333c0.333,0,0.5-0.125,0.5-0.584v-0.291c0-0.375-0.125-0.584-0.458-0.584H228.375L228.375,296.875z
	 M230.083,297.375v0.209c0,0.582-0.167,0.916-0.542,1.125c0.458,0.166,0.625,0.582,0.625,1.166v0.459
	c0,0.832-0.458,1.291-1.333,1.291H227.5v-5.5h1.292C229.708,296.084,230.083,296.5,230.083,297.375"/>
<path fill="#FFFFFF" d="M234.333,300.334c0,0.375,0.167,0.541,0.458,0.541c0.292,0,0.458-0.166,0.458-0.541v-2.959
	c0-0.375-0.167-0.541-0.458-0.541c-0.292,0-0.458,0.166-0.458,0.541V300.334z M233.458,297.416c0-0.875,0.458-1.375,1.333-1.375
	c0.833,0,1.333,0.5,1.333,1.375v2.875c0,0.875-0.458,1.375-1.333,1.375c-0.833,0-1.333-0.5-1.333-1.375V297.416z"/>
<path fill="#FFFFFF" d="M240.333,296.875v1.709h0.333c0.333,0,0.5-0.125,0.5-0.584v-0.541c0-0.375-0.125-0.584-0.458-0.584H240.333
	L240.333,296.875z M241.292,301.584c-0.042-0.125-0.083-0.209-0.083-0.668v-0.875c0-0.5-0.167-0.707-0.583-0.707h-0.292v2.25h-0.875
	v-5.5h1.292c0.917,0,1.292,0.416,1.292,1.25v0.416c0,0.584-0.167,0.916-0.583,1.125c0.417,0.166,0.583,0.584,0.583,1.166v0.834
	c0,0.25,0,0.459,0.083,0.666h-0.833V301.584z"/>
<path fill="#FFFFFF" d="M246.292,299.875h0.833l-0.417-2.791L246.292,299.875z M248.292,301.584h-0.875l-0.167-1h-1.083l-0.167,1
	h-0.792l0.875-5.5h1.25L248.292,301.584z"/>
<polygon fill="#FFFFFF" points="250.959,296.084 253.625,296.084 253.625,296.875 252.75,296.875 252.75,301.584 251.875,301.584
	251.875,296.875 250.959,296.875 "/>
<path fill="#FFFFFF" d="M257.666,300.334c0,0.375,0.168,0.541,0.459,0.541s0.459-0.166,0.459-0.541v-2.959
	c0-0.375-0.168-0.541-0.459-0.541s-0.459,0.166-0.459,0.541V300.334z M256.791,297.416c0-0.875,0.459-1.375,1.334-1.375
	c0.834,0,1.334,0.5,1.334,1.375v2.875c0,0.875-0.459,1.375-1.334,1.375c-0.834,0-1.334-0.5-1.334-1.375V297.416z"/>
<path fill="#FFFFFF" d="M263.666,296.875v1.709H264c0.334,0,0.5-0.125,0.5-0.584v-0.541c0-0.375-0.125-0.584-0.459-0.584H263.666
	L263.666,296.875z M264.625,301.584c-0.041-0.125-0.084-0.209-0.084-0.668v-0.875c0-0.5-0.166-0.707-0.582-0.707h-0.293v2.25h-0.875
	v-5.5h1.293c0.916,0,1.291,0.416,1.291,1.25v0.416c0,0.584-0.166,0.916-0.584,1.125c0.418,0.166,0.584,0.584,0.584,1.166v0.834
	c0,0.25,0,0.459,0.084,0.666h-0.834V301.584z"/>
<rect x="268.791" y="296.084" fill="#FFFFFF" width="0.875" height="5.5"/>
<polygon fill="#FFFFFF" points="274,298.416 275.209,298.416 275.209,299.209 274,299.209 274,300.834 275.5,300.834 275.5,301.584
	273.125,301.584 273.125,296.084 275.5,296.084 275.5,296.875 274,296.875 "/>
<path fill="#FFFFFF" d="M280.041,296.041c0.834,0,1.293,0.5,1.293,1.375v0.168H280.5v-0.209c0-0.375-0.166-0.541-0.416-0.541
	c-0.293,0-0.418,0.166-0.418,0.541c0,1.125,1.709,1.334,1.709,2.916c0,0.875-0.459,1.375-1.291,1.375
	c-0.834,0-1.293-0.5-1.293-1.375v-0.332h0.834v0.375c0,0.375,0.166,0.541,0.459,0.541c0.291,0,0.457-0.125,0.457-0.541
	c0-1.125-1.707-1.334-1.707-2.918C278.75,296.541,279.209,296.041,280.041,296.041"/>
<path fill="#FFFFFF" d="M245.083,254.291c2.833-1.541,6.792-3.207,10.125-5.166c5.125-3,9.791-6.958,12.207-10.583
	c0,0-6.582,13.667-15.166,21c-8.583,7.334-15.042,4.668-12.375-0.75C240.583,257.25,242.292,255.834,245.083,254.291"/>
<path fill="#FFFFFF" d="M224.625,274.041c0,0,2.333-2.332,6.25-4.125c3.458-1.582,9-1.75,14.917-4.916
	c-9.083,2.541-10.25-4.209-8.25-6.209c0,0,3.125-3.5,6.458-5.957c3.333-2.417,9.75-3.167,15.959-9.625
	c6.207-6.458,17.832-28.958,19.082-33.542c-5.832,2.792-25.791,15.667-33.666,33.417c-7.833,17.708-12,14.042-12,14.042
	s-1.25,0.041-1.958,1.25c-1.5,2.5-6.958,9.334-7.792,11.625C222.042,274.334,224.625,274.041,224.625,274.041"/>
<path fill="#FFFFFF" d="M242.875,244c4.333-9.583,13.916-20,16.25-21.958c-4.5,2.083-13.708,8.042-17.25,14.875
	c-3.542,6.833-3.292,12.125-6.833,16.458C235,253.334,238.292,254.084,242.875,244"/>
<path fill="#FFFFFF" d="M274.291,209.875c6.168-4.833,9.793-11.667,9.793-11.667c-3.209,3.042-14.25,7.792-22.209,12.125
	c-7.959,4.375-11.084,11.042-15,18.208C251.791,223.083,268.125,214.75,274.291,209.875"/>
<path fill="#FFFFFF" d="M220.542,290.125c1.417,0,2.5-0.875,2.5-2.25c0-1.334-1.167-2.291-2.583-2.291h-3.125v4.541H220.542z
	 M220.083,284.5c1.333,0,2.25-0.834,2.25-1.834c0-1.082-0.917-1.832-2.25-1.832h-2.75v3.666H220.083L220.083,284.5z
	 M220.333,279.666c2,0,3.375,1.168,3.375,2.875c0,1.168-1,2.209-1.917,2.375l0,0c1.125,0.168,2.667,1.293,2.667,2.959
	c0,2-1.375,3.416-3.833,3.416H216v-11.625H220.333z"/>
<rect x="228.708" y="279.666" fill="#FFFFFF" width="1.375" height="11.625"/>
<path fill="#FFFFFF" d="M240.292,290.209c2.625,0,4.625-1.918,4.625-4.709c0-2.834-2-4.709-4.625-4.709s-4.625,1.875-4.625,4.709
	C235.667,288.25,237.667,290.209,240.292,290.209 M240.292,279.416c3.333,0,6.042,2.543,6.042,6.043s-2.708,6.041-6.042,6.041
	c-3.333,0-6.042-2.541-6.042-6.041S236.958,279.416,240.292,279.416"/>
<path fill="#FFFFFF" d="M260,279.666v11.625h-1.291l-5.168-6.957c-1-1.375-1.707-2.459-1.75-2.459l0,0c0,0,0.043,1.459,0.043,3.291
	v6.084h-1.375v-11.625h1.292l5.166,6.959c0.875,1.166,1.709,2.375,1.75,2.375l0,0c0,0-0.041-1.543-0.041-3.209v-6.125H260V279.666z"
	/>
<rect x="265.084" y="279.666" fill="#FFFFFF" width="1.375" height="11.625"/>
<path fill="#FFFFFF" d="M279.166,291.291l-4.416-5.957l-1.875,1.875v4.082H271.5v-11.625h1.375v3.125c0,1.875-0.041,2.793,0,2.793
	l0,0c0,0,1.041-1.084,1.959-2l3.957-3.918h1.668l-4.75,4.75l5.082,6.875H279.166z"/>
</svg>
