<?xml version="1.0" encoding="utf-8"?>
<!-- Generator: Adobe Illustrator 18.1.1, SVG Export Plug-In . SVG Version: 6.00 Build 0)  -->
<svg version="1.1" id="Layer_1" xmlns="http://www.w3.org/2000/svg" xmlns:xlink="http://www.w3.org/1999/xlink" x="0px" y="0px"
	 viewBox="2.3 2.2 139 139.1" enable-background="new 2.3 2.2 139 139.1" xml:space="preserve">
<g>
	<path fill="#FFFFFF" d="M139.5,66.3L77.7,4.5c-3.2-3.2-8.2-3.2-11.4,0L4.5,66.3c-1.4,1.4-2.3,3.6-2.3,5.5c0,1.8,0.9,4.1,2.3,5.5
		L66.3,139c1.4,1.4,3.6,2.3,5.5,2.3c2.3,0,4.1-0.9,5.5-2.3L139,77.2c1.4-1.4,2.3-3.6,2.3-5.5S140.8,67.7,139.5,66.3z M134.5,72.7
		l-61.8,61.8c-0.5,0.5-0.9,0.5-1.8,0L9.5,72.7c-0.5-0.5-0.5-1.4,0-1.8L71.3,9.5c0-0.5,0.5-0.5,0.5-0.5s0.9,0,0.9,0.5l61.8,61.8
		c0.5,0.5,0.5,0.5,0.5,0.9C134.9,72.7,134.9,72.2,134.5,72.7z"/>
	<rect x="68.6" y="22.7" fill="#FFFFFF" width="6.8" height="98.1"/>
</g>
</svg>
